<svg id="Layer_1" data-name="Layer 1" xmlns="http://www.w3.org/2000/svg" viewBox="0 0 371.38 98.23"><defs><style>.cls-1{fill:#231f20;}</style></defs><title>Logo_Loreal</title><path class="cls-1" d="M561.81,242.18a11.09,11.09,0,0,1,2.39-3.46,11.22,11.22,0,0,1,3.53-2.3,11.11,11.11,0,0,1,12,2.3,11.06,11.06,0,0,1,2.38,3.46,10.56,10.56,0,0,1,.88,4.32,10.79,10.79,0,0,1-.88,4.39,11.2,11.2,0,0,1-2.38,3.49,10.61,10.61,0,0,1-3.49,2.3,11.48,11.48,0,0,1-8.52,0,10.88,10.88,0,0,1-3.53-2.3,11.23,11.23,0,0,1-2.39-3.49,10.79,10.79,0,0,1-.88-4.39A10.56,10.56,0,0,1,561.81,242.18Zm1.81,8.06a9.21,9.21,0,0,0,1.9,3,8.91,8.91,0,0,0,6.48,2.7,8.77,8.77,0,0,0,3.55-.72,8.94,8.94,0,0,0,2.86-2,9.23,9.23,0,0,0,1.91-3,10.11,10.11,0,0,0,.68-3.74,9.89,9.89,0,0,0-.68-3.67,8.95,8.95,0,0,0-4.77-4.92,8.93,8.93,0,0,0-3.55-.71,8.86,8.86,0,0,0-8.38,5.63,9.7,9.7,0,0,0-.69,3.67A9.92,9.92,0,0,0,563.62,250.24Zm9-10.11a5.22,5.22,0,0,1,3.39.91,3.39,3.39,0,0,1,1.1,2.76,3.12,3.12,0,0,1-1,2.54,4.34,4.34,0,0,1-2.4.95l3.66,5.66h-2.14l-3.49-5.51h-2.11V253h-2V240.13Zm-.88,5.69c.45,0,.87,0,1.28,0a3.23,3.23,0,0,0,1.07-.25,1.77,1.77,0,0,0,.75-.63,2.2,2.2,0,0,0,.28-1.19,1.94,1.94,0,0,0-.25-1,1.72,1.72,0,0,0-.65-.58,2.77,2.77,0,0,0-.91-.28,7,7,0,0,0-1-.08h-2.64v4.08Z" transform="translate(-211.62 -228.48)"/><path class="cls-1" d="M346.16,304.81H332.78v21.25h4v-9h9.36c6.46,0,8.83-3.34,8.83-6.3,0-3.44-3.32-6-8.83-6m-1.37,9.82h-8v-7.37H345c3.31,0,5.88.86,5.88,3.56,0,2.87-2.44,3.81-6,3.81" transform="translate(-211.62 -228.48)"/><path class="cls-1" d="M415.75,325.91h-4.54l-6.07-8.62a.55.55,0,0,0-.38-.2h-8.15v9h-4V304.81H406c5.51,0,8.83,2.54,8.83,6,0,2.44-1.63,5.15-5.84,6Zm-19.14-11.28h8c3.61,0,6.05-.94,6.05-3.81,0-2.7-2.57-3.56-5.88-3.56h-8.17Z" transform="translate(-211.62 -228.48)"/><path class="cls-1" d="M368.44,304.81l-12.39,21.25h4.59l3.44-6.19h13.21l3.26,6.19h4.87l-11.93-21.25Zm-3,12.52,5.27-9.35h.1l4.86,9.35Z" transform="translate(-211.62 -228.48)"/><path class="cls-1" d="M454.31,314.61l-8.19-1.39c-1.68-.3-3.4-.89-3.4-2.69,0-3.23,4.12-3.73,6.56-3.73,3.23,0,6.91,1,7.11,4.32H460c-.17-2.34-1.16-6.78-11.19-6.78-7,0-9.87,3.25-9.87,6.57,0,3.7,4.23,4.68,6.11,5l5.88,1c4.71.83,6.11,1.54,6.11,3.76,0,3.05-4.72,3.58-7.52,3.58-3.67,0-7.91-1.13-7.91-5H438a5.79,5.79,0,0,0,2.92,5.38c1.27.86,3.35,2.05,8.66,2.05,4.92,0,11.23-1.39,11.23-6.43,0-3.37-2.79-5-6.51-5.68" transform="translate(-211.62 -228.48)"/><rect class="cls-1" x="213.54" y="76.21" width="3.82" height="3.81"/><rect class="cls-1" x="213.57" y="82.27" width="3.81" height="15.19"/><polygon class="cls-1" points="200.5 62.2 248.06 62.2 248.06 56.39 208.66 56.39 208.66 37.8 238.25 37.8 238.25 31.92 208.66 31.92 208.66 14.8 248.06 14.8 248.06 9 200.5 9 200.5 62.2"/><polygon class="cls-1" points="225.22 0.41 218.78 7.65 239 0.41 225.22 0.41"/><polygon class="cls-1" points="327.91 56.39 327.91 9 320.47 9 320.47 62.2 368.55 62.2 368.55 56.39 327.91 56.39"/><path class="cls-1" d="M490.5,237.48l-27,53.2h9.14l6.92-13.77H512l7,13.77h9l-27.07-53.2Zm-7.56,32.77,12.74-25.41,12.9,25.41Z" transform="translate(-211.62 -228.48)"/><path class="cls-1" d="M386.32,268.44c12.18-3.26,13.37-12.33,13.31-15.56-.73-9.5-7.13-15.4-18.64-15.4H347.47v53.19h7.64v-22.3h21.82L393,290.67h9.63s-11.55-15-16.3-22.23M380,262.08H355.11V243.79h25.71c5.91,0,9.24,2.76,10.44,6.26a10,10,0,0,1-1,7.72c-2.14,3.56-6.23,4.31-10.28,4.31" transform="translate(-211.62 -228.48)"/><path class="cls-1" d="M301.54,228.48c-21.57,0-36.28,15.21-36.28,33.62,0,19.38,16.25,33.06,36.28,33.06s36.26-13.48,36.26-33.06c0-18.41-14.89-33.62-36.26-33.62m-.26,60.08c-14.92,0-27.22-12-27.22-26.44s11.72-27,27.8-27a27,27,0,0,1,27.22,27c0,14.45-12.88,26.44-27.8,26.44" transform="translate(-211.62 -228.48)"/><polygon class="cls-1" points="34.4 27.82 39.91 27.82 49.92 9 41.87 9 34.4 27.82"/><polygon class="cls-1" points="7.44 56.39 7.44 9 0 9 0 62.2 48.08 62.2 48.08 56.39 7.44 56.39"/></svg>