<svg xmlns="http://www.w3.org/2000/svg" viewBox="0 0 172.31 46.13"><title>Asset 1</title><g id="Layer_2" data-name="Layer 2"><g id="Layer_1-2" data-name="Layer 1"><path d="M22.69.3V24.83H19.23V6l-7.84,9.72L3.52,6v18.8H.07V.3h3l8.31,10.15L19.67.3Z"/><path d="M36.42.3V24.83H33V.3Z"/><path d="M58.47,13.57a6.78,6.78,0,0,1,1.47,4.62,6.54,6.54,0,0,1-2.14,4.9,7.22,7.22,0,0,1-5.16,2,9.82,9.82,0,0,1-4-.8c-.54-.25-1-.5-1.51-.74a8.87,8.87,0,0,1-1.38-.91V18.53l1.56,1.14c.44.31.82.57,1.16.77s.62.37.87.5.47.25.67.34a5.56,5.56,0,0,0,2.28.53,4.12,4.12,0,0,0,2.91-1.07,3.57,3.57,0,0,0,1.14-2.65,3.76,3.76,0,0,0-.25-1.47,2.86,2.86,0,0,0-.75-1,9.51,9.51,0,0,0-1.56-.95,16.37,16.37,0,0,0-2.36-1,11.37,11.37,0,0,1-4.39-2.48,5.2,5.2,0,0,1-1.19-1.94A7.32,7.32,0,0,1,45.5,6.8,6.22,6.22,0,0,1,47.71,2a7.24,7.24,0,0,1,5.13-2,10,10,0,0,1,3.75.64A9.78,9.78,0,0,1,58,1.19,8.85,8.85,0,0,1,59,1.84l.06,3.89L57.92,5l-.86-.48c-.24-.14-.47-.25-.68-.36l-.66-.31A5.77,5.77,0,0,0,53,3.32a4,4,0,0,0-2.81,1,3.32,3.32,0,0,0-1.14,2.41,3.38,3.38,0,0,0,.23,1.33,2.57,2.57,0,0,0,.61.85,11.38,11.38,0,0,0,3.48,1.81,23.08,23.08,0,0,1,3.05,1.33A7,7,0,0,1,58.47,13.57Z"/><path d="M81.32,13.57a6.78,6.78,0,0,1,1.48,4.62,6.55,6.55,0,0,1-2.15,4.9,7.22,7.22,0,0,1-5.16,2,9.85,9.85,0,0,1-3.95-.8c-.54-.25-1-.5-1.51-.74a8.35,8.35,0,0,1-1.37-.91V18.53l1.55,1.14c.44.31.82.57,1.16.77s.62.37.87.5.47.25.67.34a5.56,5.56,0,0,0,2.28.53,4.12,4.12,0,0,0,2.91-1.07,3.57,3.57,0,0,0,1.14-2.65A3.76,3.76,0,0,0,79,16.62a2.86,2.86,0,0,0-.75-1,9.51,9.51,0,0,0-1.56-.95,16.37,16.37,0,0,0-2.36-1,11.37,11.37,0,0,1-4.39-2.48,5.33,5.33,0,0,1-1.19-1.94,7.32,7.32,0,0,1-.39-2.45A6.2,6.2,0,0,1,70.57,2a7.2,7.2,0,0,1,5.12-2,10,10,0,0,1,3.75.64,9.78,9.78,0,0,1,1.36.55,8.85,8.85,0,0,1,1.06.65l.06,3.89L80.77,5l-.86-.48c-.24-.14-.47-.25-.68-.36l-.66-.31a5.77,5.77,0,0,0-2.68-.57,4,4,0,0,0-2.81,1,3.32,3.32,0,0,0-1.14,2.41,3.38,3.38,0,0,0,.23,1.33,2.57,2.57,0,0,0,.61.85,11.38,11.38,0,0,0,3.48,1.81,22.51,22.51,0,0,1,3,1.33A7,7,0,0,1,81.32,13.57Z"/><path d="M96.47,14.43v5.82a5.38,5.38,0,0,1-.3,1.84,4.42,4.42,0,0,1-.91,1.51,4.51,4.51,0,0,1-6.36,0,4.62,4.62,0,0,1-1.23-3.32V14.43h1.46v5.84a4.37,4.37,0,0,0,.2,1.38,2.79,2.79,0,0,0,.61,1,2.75,2.75,0,0,0,2.15.86,2.64,2.64,0,0,0,2.12-.89,3,3,0,0,0,.59-1A4.19,4.19,0,0,0,95,20.2V14.43Z"/><path d="M110.59,14.43V24.8h-1.15L102.61,17V24.8h-1.46V14.43h1.16c.67.8,1.3,1.56,1.92,2.27s1.23,1.4,1.85,2.08,1,1.15,1.52,1.74,1,1.16,1.53,1.76V14.43Z"/><path d="M116.41,14.43V24.8H115V14.43Z"/><path d="M127.94,14.43h1.54L125.1,24.9h-.68l-4.36-10.47h1.52l3.2,7.61Z"/><path d="M139.1,23.47V24.8H133V14.43h6v1.33h-4.55v3.16h4.42v1.33h-4.42v3.22Z"/><path d="M149.28,21.47l2.17,3.33h-1.73l-1.8-2.8-.5-.76a6.3,6.3,0,0,0-.48-.6,1.49,1.49,0,0,0-1.23-.47h-1.12V24.8h-1.46V14.43h2.79a5.91,5.91,0,0,1,1.46.17,3.39,3.39,0,0,1,1.15.54,2.45,2.45,0,0,1,.74.93,2.92,2.92,0,0,1,.25,1.24,2.4,2.4,0,0,1-.65,1.74,4.56,4.56,0,0,1-.87.68,1.7,1.7,0,0,1,.22.24,3.42,3.42,0,0,1,.22.28l.43.63C149,21.07,149.15,21.27,149.28,21.47Zm-1.8-3a1.44,1.44,0,0,0,.39-.47,1.48,1.48,0,0,0,.13-.67,1.31,1.31,0,0,0-.51-1.1,2.56,2.56,0,0,0-1.58-.43h-1.32v3.08h1.25a3.93,3.93,0,0,0,1-.11A2,2,0,0,0,147.48,18.43Z"/><path d="M160.2,20a2.88,2.88,0,0,1,.62,2,2.72,2.72,0,0,1-.91,2.06,3,3,0,0,1-2.18.87,4.26,4.26,0,0,1-1.67-.34l-.63-.31a4.29,4.29,0,0,1-.59-.39V22.14l.66.48c.19.13.35.24.49.32l.37.22.28.14a2.31,2.31,0,0,0,1,.22,1.76,1.76,0,0,0,1.23-.45,1.5,1.5,0,0,0,.48-1.12,1.64,1.64,0,0,0-.11-.62,1.07,1.07,0,0,0-.32-.44,3.35,3.35,0,0,0-.65-.4,8.51,8.51,0,0,0-1-.41,4.91,4.91,0,0,1-1.86-1,2.33,2.33,0,0,1-.5-.83,3.05,3.05,0,0,1-.16-1,2.64,2.64,0,0,1,.93-2,3.1,3.1,0,0,1,2.17-.85,4.25,4.25,0,0,1,1.58.27,4.88,4.88,0,0,1,.58.24,4,4,0,0,1,.44.27l0,1.65-.49-.29-.36-.21-.29-.15L159,16a2.46,2.46,0,0,0-1.14-.24,1.73,1.73,0,0,0-1.19.42,1.4,1.4,0,0,0-.48,1,1.48,1.48,0,0,0,.1.56,1,1,0,0,0,.26.36,4.8,4.8,0,0,0,1.47.77,8.87,8.87,0,0,1,1.29.56A2.91,2.91,0,0,1,160.2,20Z"/><path d="M170.65,23.47V24.8h-6.1V14.43h6v1.33H166v3.16h4.42v1.33H166v3.22Z"/><path d="M9.2,30a3.9,3.9,0,0,1,1.18,1.55,5.3,5.3,0,0,1,.39,2.07,5.11,5.11,0,0,1-.4,2,4.07,4.07,0,0,1-1.21,1.56A6.67,6.67,0,0,1,5,38.47H2.41v7.45H0V28.82H5.11a8.33,8.33,0,0,1,2.31.31A4.92,4.92,0,0,1,9.2,30ZM7.45,35.57a2.29,2.29,0,0,0,.62-.79,3,3,0,0,0,0-2.24,2.17,2.17,0,0,0-.61-.8,3.09,3.09,0,0,0-1-.53A4.5,4.5,0,0,0,5,31H2.41v5.25H4.9A3.9,3.9,0,0,0,7.45,35.57Z"/><path d="M30.48,28.82v9.6a9.19,9.19,0,0,1-.49,3,7.22,7.22,0,0,1-1.5,2.47,6.8,6.8,0,0,1-5.25,2.2A6.9,6.9,0,0,1,18,44a7.54,7.54,0,0,1-2-5.46V28.82h2.41v9.63a6.74,6.74,0,0,0,.34,2.27,4.53,4.53,0,0,0,4.54,3.1,4.43,4.43,0,0,0,3.51-1.47,5.07,5.07,0,0,0,1-1.72,7,7,0,0,0,.34-2.3V28.82Z"/><path d="M45,43.72v2.2H35V28.82h9.91V31h-7.5v5.21h7.28v2.19H37.37v5.3Z"/><path d="M59.49,40.43l3.57,5.49H60.21l-3-4.62c-.29-.46-.57-.87-.83-1.24a8.39,8.39,0,0,0-.78-1,2.52,2.52,0,0,0-2-.77H51.75v7.64h-2.4V28.82H54a9.91,9.91,0,0,1,2.41.28,5.68,5.68,0,0,1,1.89.89,4,4,0,0,1,1.22,1.54,4.82,4.82,0,0,1,.41,2,4,4,0,0,1-1.07,2.88,7.41,7.41,0,0,1-1.43,1.12,4.73,4.73,0,0,1,.37.4l.36.46.71,1Zm-3-5a2.34,2.34,0,0,0,.64-.77,2.42,2.42,0,0,0,.22-1.1,2.18,2.18,0,0,0-.84-1.82,4.32,4.32,0,0,0-2.61-.7H51.75v5.07h2.06a6.19,6.19,0,0,0,1.6-.18A3.15,3.15,0,0,0,56.52,35.41Z"/><path d="M78,28.82V31H72v14.9H69.62V31h-6v-2.2Z"/><path d="M94.68,31.11a8.76,8.76,0,0,1,0,12.5,9.44,9.44,0,0,1-12.82,0,8.37,8.37,0,0,1-2.59-6.26,8.3,8.3,0,0,1,2.57-6.23,8.82,8.82,0,0,1,6.44-2.53A8.94,8.94,0,0,1,94.68,31.11Zm-1.8,10.82a6.49,6.49,0,1,0-9.25,0,6.34,6.34,0,0,0,4.65,1.89A6.26,6.26,0,0,0,92.88,41.93Z"/><path d="M122.05,40.43l3.58,5.49h-2.85l-3-4.62c-.29-.46-.57-.87-.83-1.24a9.55,9.55,0,0,0-.78-1,2.53,2.53,0,0,0-2-.77h-1.85v7.64h-2.4V28.82h4.6a9.76,9.76,0,0,1,2.4.28,5.64,5.64,0,0,1,1.9.89A4,4,0,0,1,122,31.53a5,5,0,0,1,.41,2,4,4,0,0,1-1.07,2.88A7.73,7.73,0,0,1,120,37.56a3.42,3.42,0,0,1,.36.4l.37.46c.24.36.48.7.71,1S121.84,40.1,122.05,40.43Zm-3-5a2.34,2.34,0,0,0,.64-.77,2.42,2.42,0,0,0,.22-1.1,2.18,2.18,0,0,0-.84-1.82,4.32,4.32,0,0,0-2.61-.7h-2.18v5.07h2.06a6.24,6.24,0,0,0,1.6-.18A3.15,3.15,0,0,0,119.09,35.41Z"/><path d="M132.21,28.82v17.1h-2.38V28.82Z"/><path d="M151.71,41.74v2.61a12.13,12.13,0,0,1-1.51.78,14.78,14.78,0,0,1-1.5.53,9.67,9.67,0,0,1-1.56.36,10.61,10.61,0,0,1-1.47.11A9.36,9.36,0,0,1,139,43.68a8.24,8.24,0,0,1-2.64-6.31A8.31,8.31,0,0,1,139,31.11a8.94,8.94,0,0,1,3-1.88,10.17,10.17,0,0,1,3.59-.62,11.65,11.65,0,0,1,2.85.38,12,12,0,0,1,1.51.46,14.21,14.21,0,0,1,1.57.73v2.73c-.8-.45-1.44-.79-1.94-1a12.83,12.83,0,0,0-1.43-.54,9.4,9.4,0,0,0-2.77-.42,6.27,6.27,0,0,0-4.63,1.84,6.19,6.19,0,0,0-1.87,4.6A6.21,6.21,0,0,0,140.71,42a6.53,6.53,0,0,0,4.75,1.8,9,9,0,0,0,3-.49c.24-.08.46-.17.69-.26a7.46,7.46,0,0,0,.72-.33c.26-.12.54-.27.85-.43Z"/><path d="M169.7,31.11a8.79,8.79,0,0,1,0,12.5,9.44,9.44,0,0,1-12.82,0,8.38,8.38,0,0,1-2.6-6.26,8.33,8.33,0,0,1,2.57-6.23,8.86,8.86,0,0,1,6.45-2.53A9,9,0,0,1,169.7,31.11Zm-1.8,10.82a6.45,6.45,0,0,0-4.6-11,6.32,6.32,0,0,0-4.63,1.89,6.46,6.46,0,0,0,0,9.11,6.32,6.32,0,0,0,4.65,1.89A6.26,6.26,0,0,0,167.9,41.93Z"/></g></g></svg>